<svg width="79" height="60" viewBox="0 0 79 60" fill="none" xmlns="http://www.w3.org/2000/svg">
    <path d="M75.2728 22.1489C73.2602 20.1363 70.5836 19.0276 67.7378 19.0276C63.0184 19.0276 58.9429 21.9349 52.6858 26.6801C51.4181 27.6422 50.0965 28.6434 48.7101 29.6435V29.7152C50.0965 30.7153 51.4181 31.7176 52.6858 32.6785C58.9429 37.4226 63.0184 40.3311 67.7378 40.3311C70.5847 40.3311 73.2602 39.2223 75.2728 37.2098C77.2842 35.1984 78.3929 32.524 78.394 29.6793C78.394 26.8347 77.2842 24.1603 75.2728 22.1489Z" fill="black"/>
    <path d="M29.684 19.0278C34.4034 19.0278 38.4777 21.9351 44.7359 26.6803C46.0037 27.6423 47.3252 28.6435 48.7117 29.6437V6.13614C47.575 5.41042 46.4024 4.71606 45.185 4.07098C40.0087 1.33161 34.9387 0 29.684 0C25.6813 0 21.7929 0.786197 18.1262 2.33619C14.5906 3.83131 11.4167 5.97039 8.69408 8.69408C5.97151 11.4167 3.83243 14.5906 2.33619 18.1262C0.787317 21.7895 0.00111994 25.6757 0 29.6761V29.684C0.00111994 33.6844 0.787317 37.5695 2.33619 41.2328C3.83131 44.7684 5.97039 47.9423 8.69408 50.6649C11.4167 53.3875 14.5906 55.5266 18.1262 57.0228C21.7918 58.5728 25.6802 59.359 29.684 59.359C34.9387 59.359 40.0087 58.0274 45.185 55.288C46.4035 54.6429 47.575 53.9486 48.7117 53.2228V29.7153C47.3252 30.7154 46.0037 31.7178 44.7359 32.6787C38.4788 37.4227 34.4034 40.3312 29.684 40.3312C23.8099 40.3312 19.03 35.5536 19.0278 29.6795C19.03 23.8054 23.8099 19.0278 29.684 19.0278Z" fill="black"/>
</svg>
    